<?xml version="1.0" standalone="no"?><!DOCTYPE svg PUBLIC "-//W3C//DTD SVG 1.1//EN" "http://www.w3.org/Graphics/SVG/1.1/DTD/svg11.dtd"><svg class="icon" width="200px" height="200.00px" viewBox="0 0 1024 1024" version="1.1" xmlns="http://www.w3.org/2000/svg"><path d="M512 512m-409.6 0a409.6 409.6 0 1 0 819.2 0 409.6 409.6 0 1 0-819.2 0Z" fill="#FFC670" /><path d="M512 102.4A409.6 409.6 0 0 0 146.432 327.338667a400.554667 400.554667 0 1 1 550.229333 550.229333A409.6 409.6 0 0 0 512 102.4z" fill="#FFE3BA" /><path d="M717.653333 788.309333a481.28 481.28 0 0 1-469.674666-589.312 409.6 409.6 0 1 0 577.024 577.024 483.669333 483.669333 0 0 1-107.349334 12.288z" fill="#FFA742" /><path d="M512 512m-318.634667 0a318.634667 318.634667 0 1 0 637.269334 0 318.634667 318.634667 0 1 0-637.269334 0Z" fill="#C7ECFF" /><path d="M653.482667 324.266667c-19.114667 39.594667-65.706667 22.528-96.426667 15.530666s-74.752-12.458667-76.117333-55.296 58.368-56.832 97.28-49.493333 94.549333 50.005333 75.264 89.258667z" fill="#FFFFFF" /><path d="M619.861333 811.861333a318.634667 318.634667 0 0 1-313.856-542.890666c-27.648 71.68-3.413333 198.656 68.266667 322.730666s169.642667 208.554667 245.589333 220.16z" fill="#69BAF9" /><path d="M374.114149 591.63078a318.634667 159.232 60 1 0 275.797914-159.232 318.634667 159.232 60 1 0-275.797914 159.232Z" fill="#96DDFF" /><path d="M512 85.333333a426.666667 426.666667 0 1 0 426.666667 426.666667A426.666667 426.666667 0 0 0 512 85.333333z m0 819.2a392.533333 392.533333 0 1 1 392.533333-392.533333 392.533333 392.533333 0 0 1-392.533333 392.533333z" fill="#3D3D63" /><path d="M781.141333 375.466667a17.066667 17.066667 0 0 0 15.36 9.386666 17.066667 17.066667 0 0 0 7.68-1.706666 17.066667 17.066667 0 0 0 7.509334-23.04 350.72 350.72 0 0 0-18.944-32.597334 17.066667 17.066667 0 1 0-28.501334 18.773334 280.405333 280.405333 0 0 1 16.896 29.184zM830.805333 525.141333a17.066667 17.066667 0 0 0-18.602666 15.36 273.066667 273.066667 0 0 1-5.12 34.133334 17.066667 17.066667 0 0 0 13.312 20.138666h3.413333a17.066667 17.066667 0 0 0 17.066667-13.653333 334.165333 334.165333 0 0 0 5.632-37.376 17.066667 17.066667 0 0 0-15.701334-18.602667zM721.066667 294.741333a17.066667 17.066667 0 0 0 11.776 4.778667 17.066667 17.066667 0 0 0 12.288-5.290667 17.066667 17.066667 0 0 0 0-24.064A300.373333 300.373333 0 0 0 716.8 245.589333 17.066667 17.066667 0 1 0 695.296 273.066667c8.874667 6.485333 17.578667 13.824 25.770667 21.674666zM804.693333 439.466667a278.698667 278.698667 0 0 1 6.314667 33.28 17.066667 17.066667 0 0 0 17.066667 14.848h2.218666a17.066667 17.066667 0 0 0 14.677334-19.114667 336.896 336.896 0 0 0-6.826667-37.034667 17.066667 17.066667 0 0 0-20.650667-12.458666 17.066667 17.066667 0 0 0-12.8 20.48zM605.696 225.450667a262.656 262.656 0 0 1 31.573333 12.288 18.090667 18.090667 0 0 0 7.168 1.536 17.066667 17.066667 0 0 0 15.530667-9.898667 17.066667 17.066667 0 0 0-8.533333-22.698667 293.546667 293.546667 0 0 0-35.157334-13.653333 17.066667 17.066667 0 0 0-21.504 10.752 17.066667 17.066667 0 0 0 10.922667 21.674667zM793.770667 643.754667a17.066667 17.066667 0 0 0-15.36 9.557333 295.253333 295.253333 0 0 1-42.666667 60.586667 249.856 249.856 0 0 0 3.413333-64.170667 368.981333 368.981333 0 0 0-8.704-60.245333l51.2-29.184a17.066667 17.066667 0 1 0-17.066666-29.696l-42.496 24.576a597.333333 597.333333 0 0 0-48.64-116.394667l72.362666-41.813333a17.066667 17.066667 0 0 0-17.066666-29.525334L655.872 409.6A601.770667 601.770667 0 0 0 580.266667 308.906667l42.154666-24.405334a17.066667 17.066667 0 0 0-17.066666-29.525333l-51.2 29.013333a412.672 412.672 0 0 0-47.786667-37.717333 260.949333 260.949333 0 0 0-57.856-28.842667 299.008 299.008 0 0 1 63.488-6.997333h11.264a17.066667 17.066667 0 0 0 17.066667-17.066667 17.066667 17.066667 0 0 0-17.066667-17.066666h-12.458667a335.701333 335.701333 0 1 0 297.984 492.544 16.042667 16.042667 0 0 0 2.048-8.021334 17.066667 17.066667 0 0 0-17.066666-17.066666z m-102.4-70.997334L597.333333 626.688l-62.464-108.373333 108.032-62.464a569.173333 569.173333 0 0 1 48.469334 116.906666z m-185.685334-37.376l62.634667 108.373334-93.354667 53.76A576.341333 576.341333 0 0 1 397.653333 597.333333z m-125.098666 32.768a572.416 572.416 0 0 1-47.786667-116.906666l93.866667-53.930667 62.464 108.373333zM626.346667 426.666667l-108.032 62.293333-62.634667-108.714667 93.354667-53.930666A568.832 568.832 0 0 1 626.346667 426.666667zM397.141333 242.005333a170.666667 170.666667 0 0 1 90.282667 32.768 358.4 358.4 0 0 1 35.669333 27.136l-84.48 48.810667-61.44-106.325333a84.138667 84.138667 0 0 1 19.968-2.389334z m-49.493333 19.626667L409.6 367.786667l-85.333333 48.64c-12.458667-68.437333-5.461333-126.293333 23.381333-154.794667z m-59.562667 49.152a316.757333 316.757333 0 0 0 5.12 123.904l-81.066666 46.762667a299.008 299.008 0 0 1 75.946666-170.666667z m-77.141333 210.773333l91.136-52.565333a609.962667 609.962667 0 0 0 48.981333 116.224l-108.032 62.293333a300.373333 300.373333 0 0 1-32.085333-125.952z m49.152 155.648L368.128 614.4A599.381333 599.381333 0 0 0 443.733333 715.264L353.28 768a304.64 304.64 0 0 1-93.184-90.794667z m251.904 136.533334a298.837333 298.837333 0 0 1-123.392-26.794667l81.066667-46.592a314.88 314.88 0 0 0 105.301333 66.56 296.618667 296.618667 0 0 1-62.976 6.656z m-10.752-91.648l84.138667-48.64 61.269333 106.154666c-39.253333 10.410667-92.672-11.605333-145.408-57.685333z m174.933333 40.448L614.4 656.213333l85.333333-48.810666a347.989333 347.989333 0 0 1 5.802667 44.373333c2.56 49.834667-7.850667 88.746667-29.354667 110.592z" fill="#3D3D63" /></svg>