<?xml version="1.0" standalone="no"?><!DOCTYPE svg PUBLIC "-//W3C//DTD SVG 1.1//EN" "http://www.w3.org/Graphics/SVG/1.1/DTD/svg11.dtd"><svg class="icon" width="200px" height="200.00px" viewBox="0 0 1024 1024" version="1.1" xmlns="http://www.w3.org/2000/svg"><path d="M842.24 509.098667a39.936 39.936 0 1 0 39.936 39.936 39.936 39.936 0 0 0-39.936-39.936zM181.76 509.098667A39.936 39.936 0 1 0 221.866667 549.034667a39.936 39.936 0 0 0-40.106667-39.936zM512 146.261333a31.914667 31.914667 0 0 0-31.744 28.330667l-17.066667 139.946667a215.893333 215.893333 0 0 1 97.962667 0l-17.066667-139.946667A31.914667 31.914667 0 0 0 512 146.261333z" fill="#D8E3F0" /><path d="M380.586667 224.768a28.330667 28.330667 0 0 0 20.138666 15.189333l69.802667 12.629334 7.338667-60.757334h-76.970667a22.698667 22.698667 0 0 0-20.309333 32.938667zM623.274667 239.957333a28.330667 28.330667 0 0 0 20.138666-15.189333 22.698667 22.698667 0 0 0-20.309333-32.938667H546.133333l7.509334 60.757334zM926.549333 456.704H702.122667c-17.066667-88.234667-95.061333-147.797333-190.122667-147.797333s-173.909333 59.562667-190.122667 147.797333H97.450667a23.552 23.552 0 0 0-1.536 46.933333l224.597333 13.312c12.629333 96.085333 93.525333 178.688 191.488 178.688s178.688-82.432 191.488-178.517333l138.752-8.021333 85.333333-5.461334a23.552 23.552 0 0 0-1.536-46.933333z" fill="#EDF4FF" /><path d="M512 623.104a218.453333 218.453333 0 0 1-193.365333-130.730667c0 106.154667 87.04 203.264 193.365333 203.264s192.512-97.109333 193.365333-203.264A218.453333 218.453333 0 0 1 512 623.104z" fill="#D8E3F0" /><path d="M352.768 769.706667a106.154667 106.154667 0 0 0-44.885333 9.728 186.538667 186.538667 0 0 0-159.914667-89.429334 17.066667 17.066667 0 0 0-17.066667 17.066667v68.266667a119.466667 119.466667 0 0 0 119.466667 119.466666H443.733333a17.066667 17.066667 0 0 0 17.066667-17.066666 108.202667 108.202667 0 0 0-108.032-108.032zM876.032 690.005333A186.538667 186.538667 0 0 0 716.8 779.434667a106.154667 106.154667 0 0 0-44.885333-9.728 108.202667 108.202667 0 0 0-106.666667 90.965333h-5.12a17.066667 17.066667 0 0 0 0 34.133333h213.504a119.466667 119.466667 0 0 0 119.466667-119.466666v-68.266667a17.066667 17.066667 0 0 0-17.066667-17.066667zM418.474667 502.272h187.733333a24.405333 24.405333 0 0 0 23.381333-30.890667A121.856 121.856 0 0 0 606.037333 426.666667a25.258667 25.258667 0 0 0-19.114666-9.045334h-149.845334a25.258667 25.258667 0 0 0-19.114666 9.045334 121.856 121.856 0 0 0-22.869334 45.226666 24.405333 24.405333 0 0 0 23.381334 30.378667z" fill="#96DDFF" /><path d="M926.549333 439.637333H715.776a196.778667 196.778667 0 0 0-139.264-139.093333l-4.266667-34.133333L626.346667 256a45.568 45.568 0 0 0 32.426666-24.234667 39.936 39.936 0 0 0-35.669333-57.685333h-62.122667v-2.218667a48.981333 48.981333 0 0 0-97.28 0v2.389334h-62.805333a39.936 39.936 0 0 0-35.669333 57.685333A45.568 45.568 0 0 0 397.653333 256l54.101334 9.898667-4.266667 34.133333a196.778667 196.778667 0 0 0-139.264 139.093333H97.450667a40.618667 40.618667 0 0 0-2.56 81.066667l36.522666 2.218667a55.978667 55.978667 0 0 0-6.656 26.112 57.002667 57.002667 0 0 0 114.005334 0 56.32 56.32 0 0 0-3.925334-19.456l70.826667 4.266666C324.266667 634.026667 411.648 712.704 512 712.704s187.733333-78.506667 206.336-179.370667l70.656-4.266666a60.074667 60.074667 0 0 0-3.925333 19.968 57.002667 57.002667 0 1 0 114.005333 0 55.978667 55.978667 0 0 0-6.656-26.112l36.522667-2.218667a40.618667 40.618667 0 0 0-2.56-81.066667z m-744.789333 132.266667A22.869333 22.869333 0 1 1 204.8 549.034667a22.869333 22.869333 0 0 1-23.04 22.869333z m660.48 0a22.869333 22.869333 0 1 1 22.869333-22.869333 22.869333 22.869333 0 0 1-22.869333 22.869333zM623.104 208.896a5.290667 5.290667 0 0 1 4.778667 2.730667 5.632 5.632 0 0 1 0 5.632 10.922667 10.922667 0 0 1-8.021334 5.802666l-52.053333 9.557334-2.901333-23.722667z m-219.306667 14.165333a10.922667 10.922667 0 0 1-8.021333-5.802666 5.632 5.632 0 0 1 0-5.632 5.290667 5.290667 0 0 1 4.778667-2.730667h57.856l-2.901334 23.722667z m93.354667-46.592a15.018667 15.018667 0 0 1 29.696 0l14.506667 117.077334a230.4 230.4 0 0 0-58.709334 0zM96.938667 486.570667a6.314667 6.314667 0 0 1-5.973334-6.314667 6.485333 6.485333 0 0 1 6.485334-6.485333h204.8v24.917333zM512 678.570667c-93.866667 0-176.298667-87.722667-176.298667-187.733334 0-94.037333 75.776-164.864 176.298667-164.864s176.298667 70.826667 176.298667 164.864c0 100.010667-82.432 187.733333-176.298667 187.733334z m415.061333-192l-204.8 12.288v-8.021334-17.066666h204.8a6.485333 6.485333 0 0 1 6.485334 6.485333 6.314667 6.314667 0 0 1-6.485334 6.314667z" fill="#3D3D63" /><path d="M586.922667 400.042667h-149.845334a40.96 40.96 0 0 0-32.256 15.530666 137.386667 137.386667 0 0 0-26.282666 51.2 41.813333 41.813333 0 0 0 7.338666 36.352 40.618667 40.618667 0 0 0 32.597334 16.042667h187.733333a40.618667 40.618667 0 0 0 32.597333-16.042667 41.813333 41.813333 0 0 0 7.338667-36.352 137.386667 137.386667 0 0 0-26.282667-51.2 40.96 40.96 0 0 0-32.938666-15.530666z m-51.2 34.133333v51.2h-46.933334v-51.2z m-122.368 48.298667a7.338667 7.338667 0 0 1-1.194667-6.826667 105.472 105.472 0 0 1 19.626667-38.741333 7.850667 7.850667 0 0 1 5.802666-2.730667h17.066667v51.2h-36.181333a7.168 7.168 0 0 1-5.632-2.901333z m198.314666 0a7.168 7.168 0 0 1-5.632 2.730666h-36.693333v-51.2h17.066667a7.850667 7.850667 0 0 1 5.802666 2.730667 104.789333 104.789333 0 0 1 19.626667 38.912 7.168 7.168 0 0 1-0.682667 6.826667zM876.032 690.005333A186.538667 186.538667 0 0 0 716.8 779.434667a106.154667 106.154667 0 0 0-44.885333-9.728 108.202667 108.202667 0 0 0-106.666667 90.965333h-5.12a17.066667 17.066667 0 0 0 0 34.133333H580.266667a17.066667 17.066667 0 0 0 17.066666-17.066666 74.069333 74.069333 0 0 1 115.882667-60.928 74.752 74.752 0 0 1 22.186667 24.064 17.066667 17.066667 0 0 0 14.848 8.533333 17.066667 17.066667 0 0 0 8.533333-2.389333 17.066667 17.066667 0 0 0 6.144-23.210667 109.397333 109.397333 0 0 0-20.138667-25.088 152.576 152.576 0 0 1 131.242667-74.581333 17.066667 17.066667 0 0 0 0-34.133334zM489.301333 860.672h-30.037333a108.032 108.032 0 0 0-106.496-90.965333 106.154667 106.154667 0 0 0-44.885333 9.728 186.538667 186.538667 0 0 0-159.914667-89.429334 17.066667 17.066667 0 0 0 0 34.133334 152.576 152.576 0 0 1 131.242667 74.581333 109.397333 109.397333 0 0 0-20.138667 25.088 17.066667 17.066667 0 0 0 6.144 23.210667 17.066667 17.066667 0 0 0 8.533333 2.389333 17.066667 17.066667 0 0 0 14.848-8.533333 74.752 74.752 0 0 1 22.186667-24.064 73.898667 73.898667 0 0 1 113.664 43.861333h-3.413333a17.066667 17.066667 0 1 0 0 34.133333h68.266666a17.066667 17.066667 0 0 0 0-34.133333z" fill="#3D3D63" /></svg>