<?xml version="1.0" standalone="no"?><!DOCTYPE svg PUBLIC "-//W3C//DTD SVG 1.1//EN" "http://www.w3.org/Graphics/SVG/1.1/DTD/svg11.dtd"><svg t="1694268013102" class="icon" viewBox="0 0 1024 1024" version="1.1" xmlns="http://www.w3.org/2000/svg" p-id="2174" xmlns:xlink="http://www.w3.org/1999/xlink" width="200" height="200"><path d="M838.485333 589.653333a65.194667 65.194667 0 0 1-65.194666-65.365333 64.682667 64.682667 0 0 1-19.285334 46.250667 63.829333 63.829333 0 0 1-46.08 19.114666 65.194667 65.194667 0 0 1-65.365333-65.365333 65.194667 65.194667 0 0 1-19.114667 46.250667 64.170667 64.170667 0 0 1-46.08 19.114666A65.194667 65.194667 0 0 1 512 524.288a65.194667 65.194667 0 0 1-19.114667 46.250667 64.512 64.512 0 0 1-46.250666 19.114666 65.194667 65.194667 0 0 1-65.194667-65.365333 65.194667 65.194667 0 0 1-19.114667 46.250667 64.512 64.512 0 0 1-46.250666 19.114666 65.365333 65.365333 0 0 1-65.365334-65.365333A65.365333 65.365333 0 0 1 187.733333 589.653333a58.538667 58.538667 0 0 1-21.162666-3.242666V899.413333h690.517333V586.752a67.242667 67.242667 0 0 1-18.602667 2.901333z" fill="#EDF4FF" p-id="2175"></path><path d="M512 833.024a3334.826667 3334.826667 0 0 1-345.088-17.066667v83.456h690.176v-84.138666A3334.826667 3334.826667 0 0 1 512 833.024z" fill="#D8E3F0" p-id="2176"></path><path d="M331.264 240.298667h60.074667v81.066666h-60.074667zM692.906667 321.365333h-60.074667v-81.066666h60.074667z" fill="#FCFEFF" p-id="2177"></path><path d="M280.234667 657.237333H489.813333v130.218667H280.234667z" fill="#96DDFF" p-id="2178"></path><path d="M395.434667 657.237333l-41.130667 130.218667H307.2l41.130667-130.218667h47.104zM500.565333 657.237333l-6.997333 130.218667h-81.237333l41.130666-130.218667h47.104z" fill="#69BAF9" p-id="2179"></path><path d="M599.04 657.237333h144.725333V899.413333H599.04z" fill="#96DDFF" p-id="2180"></path><path d="M599.04 848.896v51.2h144.725333v-58.197333c-47.616 3.242667-95.232 5.802667-144.725333 6.997333z" fill="#69BAF9" p-id="2181"></path><path d="M274.090667 124.586667h475.989333v115.712H274.090667z" fill="#FFC670" p-id="2182"></path><path d="M749.909333 124.586667v115.712H496.469333l31.061334-115.712h222.378666z" fill="#FFA742" p-id="2183"></path><path d="M904.533333 524.288a65.365333 65.365333 0 1 1-130.56 0z" fill="#D8E3F0" p-id="2184"></path><path d="M903.850667 524.288h-130.56l-37.376-202.922667h111.957333l55.978667 202.922667z" fill="#FCFEFF" p-id="2185"></path><path d="M773.290667 524.288a65.365333 65.365333 0 0 1-130.730667 0z" fill="#F0504D" p-id="2186"></path><path d="M773.290667 524.288h-130.730667l-18.602667-202.922667h111.957334l37.376 202.922667z" fill="#F6716F" p-id="2187"></path><path d="M642.56 524.288a65.365333 65.365333 0 1 1-130.56 0z" fill="#D8E3F0" p-id="2188"></path><path d="M642.56 524.288H512V321.365333h111.957333l18.602667 202.922667z" fill="#FCFEFF" p-id="2189"></path><path d="M512 524.288a65.365333 65.365333 0 1 1-130.56 0z" fill="#F0504D" p-id="2190"></path><path d="M512 321.365333v202.922667h-130.56l18.602667-202.922667H512z" fill="#F6716F" p-id="2191"></path><path d="M381.44 524.288a65.365333 65.365333 0 0 1-130.730667 0z" fill="#D8E3F0" p-id="2192"></path><path d="M400.042667 321.365333l-18.602667 202.922667h-130.730667l37.376-202.922667h111.957334z" fill="#FCFEFF" p-id="2193"></path><path d="M250.709333 524.288A65.365333 65.365333 0 0 1 187.733333 589.653333a68.266667 68.266667 0 0 1-68.266666-65.365333z" fill="#F0504D" p-id="2194"></path><path d="M288.085333 321.365333l-37.376 202.922667H120.32a18.602667 18.602667 0 0 1 0-3.072l55.978667-199.850667z" fill="#F6716F" p-id="2195"></path><path d="M506.88 771.072v-113.834667a17.066667 17.066667 0 0 0-17.066667-17.066666H280.234667a17.066667 17.066667 0 0 0-17.066667 17.066666v113.834667a17.066667 17.066667 0 0 0-13.824 17.066667 17.066667 17.066667 0 0 0 17.066667 17.066666h237.397333a17.066667 17.066667 0 0 0 17.066667-17.066666 17.066667 17.066667 0 0 0-13.994667-17.066667z m-138.922667 0h-70.656v-96.768h70.656z m104.789334 0h-70.656v-96.768h70.656zM657.408 787.456a20.992 20.992 0 1 0-20.992-20.992 20.992 20.992 0 0 0 20.992 20.992z" fill="#3D3D63" p-id="2196"></path><path d="M921.6 882.346667h-47.445333V598.357333A81.408 81.408 0 0 0 921.6 524.288a18.602667 18.602667 0 0 0 0-4.437333l-55.978667-203.093334a17.066667 17.066667 0 0 0-17.066666-12.458666h-138.752v-46.933334h40.106666a17.066667 17.066667 0 0 0 17.066667-17.066666V124.586667a17.066667 17.066667 0 0 0-17.066667-17.066667H274.090667a17.066667 17.066667 0 0 0-17.066667 17.066667v115.712a17.066667 17.066667 0 0 0 17.066667 17.066666h40.106666v46.933334h-138.069333a17.066667 17.066667 0 0 0-17.066667 12.458666L103.765333 516.778667a18.602667 18.602667 0 0 0 0 4.437333 87.04 87.04 0 0 0 26.794667 62.634667 79.018667 79.018667 0 0 0 19.285333 13.482666v285.013334H102.4a17.066667 17.066667 0 0 0 0 34.133333h819.2a17.066667 17.066667 0 0 0 0-34.133333zM649.728 300.885333v-40.106666h25.941333v40.106666z m-358.4-159.232h441.514667v81.578667H291.157333z m83.114667 119.466667v40.106667h-26.112v-40.448z m34.133333-3.413333h207.018667v46.933333H408.405333z m318.122667 624.64H616.106667V674.304h110.592z m113.322666 0h-79.189333V657.237333a17.066667 17.066667 0 0 0-17.066667-17.066666H599.04a17.066667 17.066667 0 0 0-17.066667 17.066666V882.346667H183.978667V606.378667h4.778666a81.066667 81.066667 0 0 0 54.784-24.064 64.853333 64.853333 0 0 0 7.168-8.192 82.432 82.432 0 0 0 65.365334 32.256 80.896 80.896 0 0 0 58.197333-24.064 104.789333 104.789333 0 0 0 7.168-8.021334 82.432 82.432 0 0 0 65.194667 32.085334 81.066667 81.066667 0 0 0 58.197333-24.064 82.090667 82.090667 0 0 0 7.168-8.192 82.432 82.432 0 0 0 65.365333 32.256 81.066667 81.066667 0 0 0 58.026667-24.064 82.090667 82.090667 0 0 0 7.168-8.192 82.432 82.432 0 0 0 65.365333 32.256 81.066667 81.066667 0 0 0 58.197334-24.064 104.789333 104.789333 0 0 0 7.168-8.021334 82.090667 82.090667 0 0 0 65.194666 32.085334h1.536z m-1.536-309.76a48.298667 48.298667 0 0 1-48.128-48.298667 17.066667 17.066667 0 0 0-34.133333 0 48.128 48.128 0 0 1-14.336 34.133333 47.104 47.104 0 0 1-34.133333 13.994667 48.298667 48.298667 0 0 1-48.298667-48.298667 17.066667 17.066667 0 0 0-34.133333 0 48.298667 48.298667 0 0 1-48.128 48.298667A48.298667 48.298667 0 0 1 529.066667 524.288a17.066667 17.066667 0 0 0-34.133334 0 48.298667 48.298667 0 1 1-96.426666 0 17.066667 17.066667 0 0 0-34.133334 0 48.298667 48.298667 0 1 1-96.597333 0 17.066667 17.066667 0 0 0-34.133333 0A48.128 48.128 0 0 1 187.733333 572.586667a47.104 47.104 0 0 1-34.133333-13.312 52.565333 52.565333 0 0 1-16.213333-35.84l51.2-185.002667h78.506666l-20.309333 110.762667a17.066667 17.066667 0 0 0 13.653333 19.797333h3.072a17.066667 17.066667 0 0 0 17.066667-13.994667l21.504-116.906666h79.189333l-10.410666 112.128a17.066667 17.066667 0 0 0 15.530666 18.602666h1.536a17.066667 17.066667 0 0 0 17.066667-15.530666l10.581333-115.370667H494.933333v114.346667a17.066667 17.066667 0 0 0 34.133334 0v-113.834667h79.189333l10.581333 115.370667a17.066667 17.066667 0 0 0 17.066667 15.530666h1.536a17.066667 17.066667 0 0 0 15.530667-18.602666l-10.410667-112.128h79.189333l21.504 116.906666a17.066667 17.066667 0 0 0 17.066667 13.994667h3.072a17.066667 17.066667 0 0 0 13.653333-19.797333l-20.309333-110.762667h78.506667l51.2 187.733333a47.957333 47.957333 0 0 1-14.165334 32.085334 47.104 47.104 0 0 1-33.792 13.824z" fill="#3D3D63" p-id="2197"></path></svg>